# xmcd
#
# Track frame offsets: 
#        150
#        22576
#        46978
#        63458
#        81571
#        108196
#        129189
#        136591
#        152343
#        171354
#        189641
#        210374
#        232218
#        255023
#        278965
#        305383
#
# Disc length: 4493 seconds
#
# Revision: 0
# Processed by: cddbd v1.5.2PL0 Copyright (c) Steve Scherf et al.
# Submitted via: ExactAudioCopy v0.99pb2
#
DISCID=c7118b10
DTITLE=Jewel - Border Café
DYEAR=2001
DGENRE=Folklore
TTITLE0=Falling Down
TTITLE1=Kiss the flame
TTITLE2=Jesus loves you
TTITLE3=Sometimes it be that way
TTITLE4=The new wild west
TTITLE5=Grey matter
TTITLE6=Cold song
TTITLE7=Race car driver
TTITLE8=Long slow slide
TTITLE9=You were meant for me
TTITLE10=I won't walk away
TTITLE11=Hands
TTITLE12=Serve the ego
TTITLE13=Everybody needs someone sometime
TTITLE14=Standing still
TTITLE15=Who will save your soul
EXTD=
EXTT0=
EXTT1=
EXTT2=
EXTT3=
EXTT4=
EXTT5=
EXTT6=
EXTT7=
EXTT8=
EXTT9=
EXTT10=
EXTT11=
EXTT12=
EXTT13=
EXTT14=
EXTT15=
PLAYORDER=
